<?xml version="1.0" encoding="utf-8"?>
<svg viewBox="0 0 64 64" xmlns="http://www.w3.org/2000/svg">
  <path stroke-width="1" d="M 64 64 L 64 6 L 51.078 6 C 48.675 27.434 28.247 48.085 6 50.924 L 6 64 L 64 64 Z" style="fill: rgb(26, 32, 36);"/>
  <path stroke-width="1" d="M 64 0 L 64 6 L 51.077 6 C 48.674 27.434 28.246 48.085 5.996 50.924 L 6 64 L 0 64 L 0 46.33 C 23.306 45.82 45.856 23.341 46 0 L 64 0 Z" style="fill: rgb(219, 219, 219);"/>
  <path stroke-width="1" d="M 64 14 L 64 24 L 61 24 C 58.738 40.133 43.88 57.133 24 61 L 24 64 L 14 64 L 14 55 C 40.662 49.473 51.949 36.132 55 14 L 64 14 Z" style="fill: rgb(219, 219, 219);"/>
</svg>