<?xml version="1.0" encoding="UTF-8"?>
<svg xmlns="http://www.w3.org/2000/svg" xmlns:xlink="http://www.w3.org/1999/xlink" width="50px" height="50px" viewBox="0 0 50 50" version="1.1">
<g id="surface1">
<rect x="0" y="0" width="50" height="50" style="fill:rgb(7.058824%,7.843137%,14.117647%);fill-opacity:1;stroke:none;"/>
<path style=" stroke:none;fill-rule:nonzero;fill:rgb(52.156863%,39.607843%,16.470588%);fill-opacity:1;" d="M 14.351562 37.5 C 12.574219 37.507812 10.046875 35.917969 8.742188 34.386719 C 7.433594 32.859375 5.046875 29.25 6.183594 21.609375 C 7.324219 13.972656 15.433594 8 18.546875 6.609375 C 21.65625 5.222656 27.546875 3.75 27.324219 8.082031 C 27.101562 12.417969 25.433594 14.609375 23.742188 16.109375 C 22.046875 17.609375 24.992188 14.570312 25.851562 11.261719 C 26.714844 7.957031 26.046875 6.667969 23.242188 7.886719 C 20.433594 9.109375 12.433594 15.484375 11.101562 22.152344 C 9.769531 28.820312 12.324219 36.070312 14.351562 36.375 C 16.378906 36.679688 18.351562 32.429688 18.964844 30.125 C 19.574219 27.820312 20.242188 24.511719 17.183594 24.652344 C 14.128906 24.792969 19.519531 23.320312 23.296875 24.320312 C 27.074219 25.320312 31.03125 28.859375 24.226562 33.71875 C 24 33.882812 21.667969 35.222656 22.03125 37.34375 C 22.390625 39.460938 25.824219 44.128906 25.566406 44.316406 C 24.136719 45.347656 20.164062 36.53125 19.53125 37.109375 C 18.894531 37.683594 17.214844 42.136719 15.433594 42.5 C 13.65625 42.859375 10.683594 43.167969 13.65625 42.277344 C 16.628906 41.386719 19.621094 33.097656 18.378906 34.359375 C 17.136719 35.625 16.128906 37.492188 14.351562 37.5 Z M 20.683594 25.472656 C 20.921875 26.929688 20.671875 28.609375 20.433594 30.097656 C 20.199219 31.582031 18.09375 37.109375 21.472656 34.570312 C 24.851562 32.03125 26.679688 30.820312 26.523438 28.527344 C 26.367188 26.230469 20.449219 24.011719 20.683594 25.472656 Z M 29.144531 28.945312 C 28.144531 31.75 27.296875 33.636719 24.628906 37.082031 C 21.964844 40.527344 26.640625 36.417969 27.40625 35.429688 C 28.335938 34.234375 30.074219 31.179688 30.992188 30.332031 C 31.90625 29.484375 35.976562 28.671875 38.050781 30.238281 C 39.710938 31.492188 41.25 34.992188 41.175781 36.585938 C 41.007812 40.167969 38.851562 40.792969 35.808594 41.179688 C 32.769531 41.566406 29.769531 41.277344 28.324219 41.167969 C 26.878906 41.054688 25.269531 41.042969 27.28125 41.777344 C 29.296875 42.511719 35.839844 42.320312 37.78125 42.402344 C 39.726562 42.484375 44.28125 41 44.066406 36.644531 C 43.851562 32.289062 38.214844 29.472656 38.046875 28.804688 C 37.878906 28.136719 45.183594 27.640625 44.613281 23.460938 C 44.042969 19.28125 38.265625 17.347656 33.558594 17.425781 C 28.851562 17.503906 28.839844 19.636719 30.253906 19.027344 C 31.667969 18.417969 32.378906 18.429688 31.503906 20.695312 C 30.628906 22.957031 30.144531 26.136719 29.144531 28.945312 Z M 33.394531 20.011719 C 34.378906 18 37.832031 18.730469 38.808594 19.1875 C 39.785156 19.648438 42.097656 21.082031 41.621094 23.835938 C 41.140625 26.589844 30.519531 29.542969 31.308594 26.875 C 32.101562 24.207031 32.40625 22.027344 33.394531 20.011719 Z M 33.394531 20.011719 "/>
</g>
</svg>
