<?xml version="1.0" encoding="utf-8"?>
<svg width="0.213333in" height="0.213333in" viewBox="0 0 64 64" xmlns="http://www.w3.org/2000/svg">
  <path id="Sans nom" d="M 32 58.09 C 32 58.09 15.48 53.96 15.48 53.96 C 15.48 53.96 5.17 24 5.17 24 C 5.17 24 17 33.48 17 33.48 C 17 33.48 14.83 16.09 14.83 16.09 C 14.83 16.09 25.91 25.17 25.91 25.17 C 25.91 25.17 32 3.87 32 3.87 C 32 3.87 39.09 25.3 39.09 25.3 C 39.09 25.3 49.39 15.96 49.39 15.96 C 49.39 15.96 46.57 32.96 46.57 32.96 C 46.57 32.96 59.17 24 59.17 24 C 59.17 24 48.74 53.91 48.74 53.91 C 48.74 53.91 32 58.09 32 58.09 Z" style="fill: rgb(76, 23, 81); stroke: rgb(255, 255, 255); paint-order: stroke; stroke-width: 6px;"/>
  <path id="Sans nom" stroke-width="1" d="M 32.156 41.189 C 32.156 41.189 30.062 52.865 30.062 52.865 C 30.062 52.865 32.156 55.742 32.156 55.742 C 32.156 55.742 38.047 51.429 38.047 51.429 C 38.047 51.429 41.582 44.724 41.582 44.724 C 41.582 44.724 40.87 36.383 40.87 36.383 C 40.87 36.383 37.594 43.501 37.594 43.501 C 37.594 43.501 32.156 41.189 32.156 41.189 Z M 32.156 22.536 C 32.156 22.536 23.801 33.707 23.801 33.707 C 23.801 33.707 22.576 44.005 22.576 44.005 C 22.576 44.005 26.764 48.718 26.764 48.718 C 26.764 48.718 29.321 34.559 29.321 34.559 C 29.321 34.559 35.598 38.492 35.598 38.492 C 35.598 38.492 39.379 31.244 39.379 31.244 C 39.379 31.244 32.156 22.536 32.156 22.536 Z" style="fill: rgb(171, 137, 54);"/>
</svg>