<?xml version="1.0" standalone="no"?>
<!DOCTYPE svg PUBLIC "-//W3C//DTD SVG 20010904//EN"
 "http://www.w3.org/TR/2001/REC-SVG-20010904/DTD/svg10.dtd">
<svg version="1.0" xmlns="http://www.w3.org/2000/svg"
 width="728.000000pt" height="375.000000pt" viewBox="0 0 728.000000 375.000000"
 preserveAspectRatio="xMidYMid meet">

<g transform="translate(0.000000,375.000000) scale(0.100000,-0.100000)"
fill="#83888a" stroke="none">
<path d="M3745 3253 c-586 -387 -754 -509 -1025 -749 -205 -181 -464 -464
-425 -464 3 0 72 68 153 151 221 228 460 432 762 650 112 81 360 248 398 268
13 7 -15 -32 -63 -86 -219 -248 -439 -578 -575 -865 l-42 -87 -147 -46 c-180
-57 -427 -142 -675 -233 l-189 -70 -81 58 c-390 279 -881 316 -1232 94 -129
-81 -267 -248 -300 -362 -19 -66 -14 -147 13 -192 21 -36 77 -77 124 -90 54
-16 167 -11 256 10 82 20 514 161 673 220 47 17 114 42 150 55 36 13 121 44
190 70 211 79 181 78 256 4 317 -311 478 -790 409 -1217 -16 -99 -15 -112 15
-112 22 0 25 10 79 225 47 189 96 379 117 452 l15 53 138 69 c246 123 430 233
650 390 125 89 137 96 185 97 85 2 134 24 294 131 84 57 155 103 157 103 3 0
-15 -30 -39 -67 -24 -38 -62 -105 -85 -150 -125 -251 -125 -350 2 -347 59 2
81 11 203 90 111 72 119 75 111 42 -10 -40 19 -69 68 -70 103 -1 316 94 475
212 73 54 210 189 210 207 0 7 -7 16 -15 19 -8 4 -12 10 -9 16 18 28 612 268
665 268 38 0 46 -22 23 -58 -57 -88 -407 -452 -435 -452 -32 0 -243 -175 -254
-211 -6 -19 9 -49 25 -49 4 0 54 35 111 77 57 42 151 100 209 129 121 61 279
126 290 119 4 -2 2 -26 -5 -52 -23 -90 -9 -92 136 -22 l106 51 42 -30 c81 -59
222 -67 229 -14 3 21 0 22 -63 22 -73 0 -112 15 -162 63 l-32 30 -86 -42 c-48
-22 -91 -41 -96 -41 -5 0 2 22 15 48 30 59 23 77 -25 67 -38 -9 -199 -69 -242
-92 -54 -28 -40 -3 55 94 148 152 239 263 256 311 17 51 -5 97 -53 111 -48 13
-101 -1 -316 -88 -267 -106 -390 -161 -619 -272 -63 -31 -117 -55 -119 -53 -2
2 7 20 22 41 20 28 24 41 16 55 -5 10 -13 18 -18 18 -4 0 -72 -52 -152 -116
-142 -114 -410 -300 -501 -347 -57 -30 -98 -26 -98 9 0 13 11 52 24 86 61 164
174 347 300 488 75 84 90 115 61 127 -17 6 -25 0 -322 -209 -100 -71 -208
-142 -240 -158 -110 -56 -100 -38 50 92 157 137 314 298 332 343 50 117 -15
197 -158 196 -39 0 -104 -5 -144 -11 -121 -17 -463 -87 -589 -121 -152 -40
-174 -44 -174 -30 0 20 88 187 172 330 176 294 298 452 535 690 95 95 170 177
167 182 -11 19 -42 6 -139 -58z m255 -1063 c61 -42 30 -98 -147 -270 -133
-129 -280 -257 -286 -249 -2 2 -9 24 -16 49 -19 65 -45 96 -97 116 -41 15 -53
16 -108 5 -124 -26 -311 -106 -464 -198 -40 -25 -76 -42 -79 -39 -3 3 4 34 17
68 22 61 138 339 144 345 6 6 251 72 362 97 239 54 567 107 619 99 17 -3 41
-13 55 -23z m-1179 -367 c-38 -93 -78 -197 -90 -233 -20 -56 -34 -75 -105
-145 -96 -93 -149 -171 -182 -264 -33 -94 -32 -145 5 -182 17 -17 40 -29 55
-29 32 0 32 -3 1 -115 -14 -49 -30 -107 -36 -128 -5 -21 -14 -35 -18 -33 -4 3
-11 38 -15 77 -8 86 -18 134 -57 256 -69 219 -183 411 -347 585 l-64 68 28 11
c28 10 244 89 409 149 44 16 152 52 240 80 88 28 171 55 185 60 62 21 62 19
-9 -157z m-1519 122 c106 -19 219 -56 313 -102 77 -39 225 -133 225 -144 0 -8
-10 -12 -190 -78 -590 -216 -926 -326 -1035 -340 -79 -9 -155 -2 -193 18 -45
24 -66 61 -70 122 -4 54 -1 68 32 133 90 184 317 345 549 391 88 18 267 18
369 0z m2147 -175 c24 -12 51 -80 51 -125 0 -32 -7 -40 -92 -103 -126 -92
-225 -158 -365 -243 -136 -82 -403 -223 -410 -216 -4 5 33 136 88 304 l30 92
105 70 c231 156 517 262 593 221z m1425 -85 c-144 -114 -426 -293 -432 -275
-2 5 9 31 25 58 27 45 37 52 222 145 178 89 236 111 185 72z m-519 -295 c-20
-40 -30 -50 -50 -50 -25 0 -25 1 -11 29 15 27 62 70 79 71 4 0 -4 -22 -18 -50z
m-1705 -37 c-5 -16 -27 -88 -49 -160 -22 -73 -42 -137 -46 -143 -3 -5 -19 -10
-36 -10 -26 0 -29 3 -29 33 0 77 63 209 134 280 34 34 37 34 26 0z"/>
<path d="M6855 1916 c-154 -63 -381 -179 -414 -212 -13 -11 -12 -14 2 -20 10
-3 63 20 139 61 68 36 183 91 256 122 120 52 151 74 111 80 -8 1 -50 -12 -94
-31z"/>
</g>
</svg>
