<?xml version="1.0" encoding="utf-8"?>
<svg viewBox="0 0 1000 575" xmlns="http://www.w3.org/2000/svg">
    <path
            fill="none"
            stroke="#83888a"
            stroke-width="5"
            d="M 182.453 299.207 C 181.129 295.601 162.793 322.008 182.984 350.587 C 203.166 379.16 243.821 387.812 266.879 337.864 C 289.93 287.931 280.949 203.962 217.257 126.385 C 153.565 48.808 297.613 43.108 343.108 94.192 C 388.603 145.276 355.42 168.803 337.335 183.803 C 319.25 198.803 268.116 234.859 257.74 207.816 C 244.65 173.702 387.954 188.588 402.278 236.908 C 416.602 285.228 348.963 346.352 324.702 358.518 C 302.154 369.825 288.678 359.254 289.134 347.168 C 289.59 335.082 295.832 326.143 311.086 331.714 C 326.553 337.363 323.642 347.611 349.06 351.52 C 374.477 355.43 402.652 321.266 406.539 309.954 C 412.545 292.471 381.398 347.586 405.227 349.072 C 429.056 350.559 430.301 326.829 443.257 308.663 C 456.214 290.498 418.145 344.525 434.28 346.151 C 451.621 347.898 473.535 312.599 468.682 301.334 C 463.827 290.07 457.639 296.476 457.587 301.471 C 457.536 306.466 474.722 303.522 488.916 298.933 C 506.798 293.153 490.395 316.926 485.365 323.173 C 480.335 329.421 470.907 344.195 481.882 345.033 C 491.908 345.798 532.099 337.943 543.829 319.272 C 554.178 302.798 543.85 288.508 523.314 295.919 C 502.777 303.331 494.901 324.27 510.091 336.713 C 527.093 350.639 539.061 335.618 547.33 330.175 C 555.599 324.732 562.542 299.312 567.412 288.54 C 572.282 277.769 544.872 316.943 549.383 403.2 C 551.675 447.047 511.627 468.427 504.806 467.017 C 497.984 465.607 489.302 453.585 509.374 410.535 C 523.123 381.044 572.612 327.443 575.745 313.503 C 578.878 299.564 551.669 350.098 568.831 348.841 C 586.909 347.519 601.376 320.601 602.902 313.112 C 603.849 308.462 581.019 350.182 603.888 348.92 C 615.147 348.299 631.867 293.934 634.142 308.877 C 636.418 323.821 622.881 341.229 629.307 348.608 C 635.726 355.98 651.876 329.554 655.666 334.266 C 659.456 338.978 660.154 346.934 678.803 343.311 C 690.12 341.112 694.667 314.609 673.024 309.57 C 646.235 303.334 653.397 324.739 654.185 331.412 C 655.444 342.061 678.144 348.302 682.649 341.432 C 687.153 334.562 696.723 293.253 718.325 265.186 C 727.864 252.793 784.198 155.748 758.198 192.789 C 732.198 229.83 680.215 338.097 690.311 340.015 C 700.407 341.933 717.162 315.762 725.965 301.678 C 734.768 287.594 691.695 343.756 719.325 341.412 C 738.231 339.807 836.733 242.398 789.846 290.36 C 742.959 338.322 663.541 463.301 617.081 496.089 C 596.342 510.725 850.871 191.763 950.111 160.514 C 1029.942 135.377 399.647 506.961 395.376 449.559 C 391.105 392.157 754.318 124.407 685.696 119.119 C 618.291 113.925 94.859 574.706 35.494 404.226"
    />
</svg>