<?xml version="1.0" encoding="utf-8"?>
<svg width="0.213333in" height="0.213333in" viewBox="0 0 64 64" xmlns="http://www.w3.org/2000/svg">
  <path id="Sans nom" stroke-width="1" d="M 10.098 43.769 L 15.159 54.979 L 22.579 54.148 L 32.108 56.348 L 40.811 53.484 L 47.549 54.589 L 53.328 43.339 L 50.888 36.648 L 58.808 27.518 L 42.198 35.998 L 32.287 4.162 L 21.718 36.128 L 5.148 27.518 L 13.458 37.388 L 10.098 43.769 Z" style="fill: rgb(127, 45, 135);"/>
  <path id="Sans nom" stroke-width="1" d="M 19.678 31.818 L 15.238 29.428 L 11.678 19.778 L 20.198 21.128 L 22.938 23.168 L 19.678 31.818 Z M 23.848 21.088 L 25.094 16.979 L 21.198 11.258 L 21.678 18.998 L 23.848 21.088 Z M 40.503 21.221 L 44.408 18.558 L 43.602 11.46 C 43.602 11.46 39.065 16.812 39.256 17.366 C 40.024 19.594 40.503 21.221 40.503 21.221 Z M 44.198 31.738 L 49.108 29.038 L 52.538 20.998 L 44.938 21.538 L 41.408 24.608 L 44.198 31.738 Z M 35.328 41.608 L 33.328 44.818 L 33.108 48.428 L 35.588 45.648 L 35.328 41.608 Z M 32.108 32.168 L 28.148 41.128 L 28.978 44.908 L 31.278 47.738 L 31.758 42.648 L 34.888 39.298 L 32.108 32.168 Z" style="fill: rgb(219, 163, 60);"/>
</svg>