<?xml version="1.0" encoding="utf-8"?>
<svg viewBox="0 0 500 500" xmlns="http://www.w3.org/2000/svg">
  <path id="Sélection #1" stroke-width="1" d="M 301.623 93.043 C 301.623 93.043 313.849 105.39 331.729 123.043 C 340.911 134.354 367.856 166.043 367.856 166.043 C 367.856 166.043 393.627 197.963 393.121 211.033 C 392.881 217.613 393.342 207.645 392.692 213.885 C 391.897 221.665 390.316 238.343 390.737 246.043 L 350.997 208.043 L 342.411 266.043 C 342.411 266.043 297.594 209.218 285.943 194.284 L 260.302 253.171 L 255.82 258.674 L 267.205 219.043 L 279.248 175.043 L 301.623 93.043 Z M 281.15 234.043 L 323.721 287.133 L 341.363 310.043 L 344.47 297.043 L 350.875 270.186 C 351.357 267.386 353.764 254.893 355.838 257.213 C 357.878 259.494 364.135 264.593 366.556 267.043 L 390.737 293.043 L 390.737 272.043 L 391.941 253.043 C 396.65 255.553 413.618 287.043 413.618 287.043 L 420.819 330.033 L 417.821 345.763 C 417.821 345.763 400.636 391.773 400.371 395.043 L 374.877 424.043 L 358.222 437.873 L 341.363 450.043 C 337.028 450.413 301.502 464.703 298.01 467.043 L 242.711 474.923 L 200.466 470.043 L 198.057 467.043 L 204.861 447.043 L 214.495 412.043 L 234.967 337.043 L 246.227 296.043 L 258.27 307.043 L 281.15 234.043 Z" style="fill: rgb(155, 54, 165);"/>
  <path id="Sélection" stroke-width="1" d="M 208.068 74.548 L 243.225 21.333 C 242.852 28.373 298.961 91.113 302.827 93.043 L 289.074 143.043 L 272.022 205.043 L 263.087 238.043 L 255.861 259.043 L 205.283 206.043 L 176.381 298.043 L 152.296 250.043 L 122.19 333.043 C 122.19 333.043 75.296 307.893 70.407 306.043 L 79.804 249.3 C 96.205 217.806 114.798 190.348 131.739 167.709 C 163.301 125.53 208.068 74.548 208.068 74.548 Z M 206.487 253.043 L 246.227 296.043 L 242.771 312.043 L 233.763 345.043 L 212.002 425.043 L 200.259 469.935 L 154.874 450.904 L 108.341 418.043 L 75.224 355.043 L 123.394 381.043 L 130.415 360.043 L 135.701 344.043 L 139.723 335.043 L 152.296 298.043 C 158.522 299.753 176.381 345.043 176.381 345.043 L 206.487 253.043 Z" style="fill: rgb(190, 134, 29);"/>
</svg>