<?xml version="1.0" encoding="utf-8"?>
<svg viewBox="40.532 207.641 818.937 80.067" xmlns="http://www.w3.org/2000/svg">
  <path d="M 820.416 245.746 C 822.447 243.923 825.753 240.962 828.725 238.3 C 830.467 236.742 832.091 235.286 833.282 234.222 C 833.878 233.69 834.367 233.256 834.704 232.955 C 834.873 232.805 835.007 232.687 835.097 232.608 C 835.141 232.568 835.178 232.536 835.204 232.516 C 835.216 232.504 835.229 232.493 835.237 232.486 C 835.243 232.48 835.254 232.472 835.263 232.466 C 835.27 232.46 835.29 232.445 835.306 232.436 C 835.322 232.426 835.379 232.397 835.417 232.385 C 835.464 232.37 835.613 232.352 835.705 232.375 C 835.786 232.394 835.948 232.499 836.005 232.579 C 836.061 232.655 836.105 232.821 836.105 232.891 C 836.105 232.705 840.333 236.326 844.752 240.144 C 849.172 243.962 853.425 247.649 853.281 247.649 C 853.353 247.649 853.55 247.709 853.638 247.79 C 853.74 247.884 853.815 248.142 853.803 248.243 C 853.793 248.337 853.73 248.461 853.708 248.492 C 853.69 248.519 853.659 248.553 853.648 248.563 C 853.638 248.574 853.622 248.589 853.613 248.595 C 853.599 248.606 853.582 248.621 853.564 248.635 C 853.531 248.662 853.48 248.703 853.416 248.754 C 853.288 248.854 853.1 249.001 852.862 249.187 C 852.383 249.559 851.696 250.09 850.869 250.727 C 849.22 252 847.011 253.697 844.8 255.393 C 842.589 257.089 840.374 258.785 838.71 260.053 C 837.879 260.687 837.185 261.215 836.697 261.583 C 836.452 261.767 836.26 261.913 836.124 262.011 C 836.059 262.061 836.004 262.1 835.968 262.127 C 835.948 262.14 835.924 262.155 835.91 262.165 C 835.901 262.171 835.882 262.184 835.866 262.192 C 835.854 262.199 835.818 262.216 835.795 262.226 C 835.772 262.234 835.707 262.251 835.665 262.255 C 835.6 262.263 835.447 262.196 835.312 262.12 L 835.121 261.924 C 835.175 261.981 823.269 252.225 819.568 249.182 L 718.575 249.171 L 732.956 261.785 L 731.252 263.829 L 715.054 249.171 L 688.827 249.168 L 703.666 261.776 L 701.973 263.506 L 685.349 249.168 L 663.855 249.166 C 658.998 250.769 654.862 254.079 651.867 257.155 C 648.914 260.19 647.196 262.82 647.163 263.28 C 647.163 263.285 647.163 263.292 647.163 263.298 L 647.112 263.297 L 646.111 263.306 C 646.111 263.296 646.111 263.282 646.111 263.27 C 646.16 261.418 645.289 259.83 643.728 258.287 C 642.151 256.729 639.938 255.368 637.281 254.16 C 631.96 251.744 625.099 250.08 618.864 249.16 L 515.95 249.15 C 515.72 250.04 515.271 251.101 514.521 251.944 C 513.651 252.92 512.236 253.714 510.347 253.714 C 508.138 253.714 506.095 253.053 504.681 252.024 C 503.251 250.981 502.302 249.393 502.308 247.764 C 502.313 246.132 503.305 244.559 504.739 243.538 C 506.157 242.528 508.174 241.905 510.269 241.914 C 512.13 241.968 513.562 242.714 514.46 243.656 C 515.237 244.468 515.719 245.488 515.961 246.341 L 617.25 246.362 C 623.575 245.214 630.792 243.06 636.462 240.435 C 639.298 239.122 641.698 237.717 643.411 236.256 C 645.105 234.812 646.054 233.482 646.017 232.109 C 646.017 232.107 646.017 232.104 646.017 232.101 L 647.068 232.105 C 647.068 232.108 647.068 232.11 647.068 232.113 C 647.028 233.679 648.776 236.525 651.81 239.423 C 654.849 242.325 659.057 245.099 664 246.371 L 685.052 246.376 L 699.115 232.494 L 701.033 234.217 L 688.505 246.377 L 714.994 246.382 L 729.062 231.975 L 730.89 233.84 L 718.445 246.383 L 819.68 246.404 L 820.391 246.404 L 820.416 245.746 Z M 436.164 219.65 C 443.211 220.399 448.326 223.594 451.069 228.235 C 453.803 221.562 471.794 215.119 484.007 226.527 C 470.012 218.983 463.466 222.536 459.672 224.258 C 457.513 225.238 453.068 230.52 453.002 233.305 C 453.163 234.098 453.348 236.537 453.317 236.932 C 454.007 240.56 455.181 242.12 457.904 244.841 C 462.368 241.308 468.596 240.747 473.286 239.896 C 482.948 238.14 494.376 243.545 494.291 248.27 C 494.195 252.983 487.257 257.154 472.776 255.995 C 466.736 255.51 461.141 251.454 457.393 248.605 C 452.274 254.726 452.698 265.752 457.741 268.859 C 464.146 272.806 470.69 278.105 485.821 269.508 C 482.895 271.881 478.192 277.041 467.775 275.935 C 460.728 275.186 455.613 271.991 452.87 267.35 C 450.136 274.023 443.149 277.667 436.664 278.172 C 428.344 278.821 420.8 270.682 419.182 268.5 C 432.408 280.162 442.772 274.842 448.369 269.245 C 450.047 267.57 450.859 261.146 450.891 260.75 C 450.2 257.122 448.134 251.323 445.411 248.602 C 440.946 252.135 435.343 254.838 430.653 255.689 C 420.991 257.445 409.563 252.04 409.648 247.315 C 409.744 242.602 416.682 238.431 431.163 239.59 C 437.203 240.074 442.173 241.989 445.921 244.838 C 451.041 238.717 451.241 229.833 446.198 226.726 C 439.793 222.779 433.249 217.48 418.118 226.077 C 421.044 223.704 425.747 218.544 436.164 219.65 Z M 447.842 246.481 C 449.923 248.481 450.927 250.64 451.975 253.189 C 452.901 251.718 454.245 248.14 455.651 246.783 C 453.57 244.783 452.745 244.186 451.697 241.638 C 450.771 243.108 449.248 245.124 447.842 246.481 Z M 443.654 247.084 C 442.588 246.296 441.415 245.649 440.144 245.187 C 430.227 241.591 414.83 242.155 414.883 247.549 C 414.926 252.933 430.844 254.114 440.697 249.028 C 441.777 248.471 442.762 247.815 443.654 247.084 Z M 459.66 246.359 C 460.727 247.147 463.55 250.025 464.822 250.487 C 474.739 254.084 489.109 253.43 489.055 248.036 C 489.013 242.652 472.47 239.329 462.617 244.415 C 461.537 244.972 460.552 245.628 459.66 246.359 Z M 80.138 246.89 L 80.856 246.89 L 183.208 246.868 L 170.627 234.325 L 172.475 232.46 L 186.699 246.867 L 213.48 246.862 L 200.813 234.702 L 202.753 232.979 L 216.971 246.861 L 238.255 246.857 C 243.253 245.584 247.507 242.81 250.58 239.908 C 253.648 237.01 255.415 234.164 255.374 232.599 C 255.374 232.595 255.374 232.593 255.374 232.59 L 256.438 232.586 C 256.438 232.589 256.438 232.592 256.438 232.594 C 256.399 233.967 257.359 235.297 259.071 236.741 C 260.804 238.202 263.23 239.607 266.097 240.92 C 271.829 243.545 279.126 245.699 285.521 246.847 L 387.928 246.826 C 388.172 245.973 388.66 244.953 389.444 244.141 C 390.354 243.2 391.801 242.454 393.683 242.399 C 395.802 242.39 397.841 243.013 399.274 244.023 C 400.724 245.045 401.727 246.617 401.732 248.249 C 401.737 249.879 400.779 251.466 399.333 252.509 C 397.904 253.538 395.838 254.2 393.603 254.2 C 391.695 254.2 390.265 253.405 389.385 252.429 C 388.625 251.586 388.171 250.525 387.939 249.635 L 283.891 249.645 C 277.586 250.565 270.649 252.229 265.269 254.645 C 262.582 255.853 260.344 257.214 258.752 258.772 C 257.174 260.316 256.293 261.903 256.342 263.756 C 256.342 263.767 256.342 263.781 256.342 263.791 L 255.33 263.782 L 255.278 263.783 C 255.278 263.777 255.278 263.771 255.278 263.765 C 255.246 263.306 253.507 260.675 250.522 257.641 C 247.494 254.565 243.313 251.254 238.402 249.651 L 216.671 249.653 L 199.864 263.991 L 198.153 262.261 L 213.155 249.653 L 186.637 249.656 L 170.261 264.314 L 168.537 262.27 L 183.079 249.656 L 80.97 249.667 C 77.228 252.711 65.184 262.471 65.245 262.41 L 65.052 262.605 C 64.916 262.681 64.762 262.748 64.696 262.741 C 64.653 262.736 64.587 262.719 64.565 262.711 C 64.54 262.701 64.504 262.684 64.493 262.677 C 64.478 262.669 64.457 262.657 64.448 262.65 C 64.433 262.641 64.411 262.626 64.39 262.612 C 64.353 262.585 64.298 262.546 64.231 262.496 C 64.096 262.398 63.9 262.252 63.653 262.068 C 63.16 261.7 62.458 261.172 61.616 260.538 C 59.935 259.27 57.697 257.575 55.461 255.879 C 53.225 254.183 50.993 252.485 49.324 251.212 C 48.488 250.575 47.794 250.044 47.309 249.672 C 47.068 249.486 46.877 249.339 46.749 249.239 C 46.684 249.188 46.633 249.148 46.599 249.12 C 46.581 249.106 46.562 249.091 46.55 249.08 C 46.542 249.074 46.525 249.059 46.515 249.049 C 46.504 249.038 46.473 249.004 46.454 248.977 C 46.432 248.946 46.368 248.822 46.357 248.728 C 46.345 248.627 46.423 248.37 46.525 248.275 C 46.614 248.194 46.812 248.135 46.886 248.135 C 46.74 248.135 51.041 244.448 55.509 240.629 C 59.976 236.811 64.251 233.19 64.251 233.376 C 64.251 233.306 64.297 233.14 64.352 233.065 C 64.411 232.984 64.574 232.879 64.655 232.86 C 64.749 232.837 64.9 232.855 64.946 232.87 C 64.986 232.883 65.042 232.911 65.059 232.921 C 65.075 232.931 65.096 232.945 65.103 232.951 C 65.111 232.957 65.122 232.966 65.129 232.971 C 65.137 232.978 65.15 232.989 65.163 233.001 C 65.188 233.021 65.225 233.053 65.27 233.093 C 65.362 233.172 65.496 233.29 65.667 233.44 C 66.009 233.741 66.503 234.175 67.105 234.707 C 68.309 235.771 69.953 237.227 71.712 238.785 C 74.718 241.447 78.059 244.408 80.114 246.231 L 80.138 246.89 Z" style="fill: rgb(219, 219, 219);"/>
</svg>