<svg id="svg" xmlns="http://www.w3.org/2000/svg" xmlns:xlink="http://www.w3.org/1999/xlink" width="400" height="41.1663807890223" viewBox="0, 0, 400,41.1663807890223"><g id="svgg"><path id="path0" d="M187.991 0.986 C 185.766 1.716,183.591 3.376,182.777 4.963 C 182.560 5.387,182.941 5.171,183.749 4.412 C 186.759 1.582,191.351 1.138,194.586 3.364 C 198.049 5.746,199.274 11.629,197.154 15.695 C 196.039 17.833,196.412 17.764,193.952 16.281 C 185.812 11.372,175.720 15.481,179.233 22.275 C 181.474 26.609,189.987 26.900,194.769 22.806 L 196.174 21.604 196.863 22.571 C 200.263 27.347,199.116 34.658,194.508 37.566 C 190.636 40.011,186.108 39.205,184.201 35.732 C 183.718 34.852,183.578 34.733,183.733 35.334 C 184.816 39.526,190.334 41.414,194.817 39.127 C 196.453 38.293,199.152 35.698,199.489 34.637 C 199.763 33.773,200.237 33.773,200.511 34.637 C 201.260 36.998,205.413 39.717,208.746 40.028 C 212.365 40.366,216.492 37.656,216.461 34.961 C 216.458 34.695,216.108 35.090,215.684 35.839 C 213.763 39.230,209.691 39.945,205.682 37.595 C 200.987 34.844,199.691 27.895,202.941 22.905 L 203.775 21.624 205.492 22.924 C 212.072 27.904,221.269 26.023,221.269 19.697 C 221.269 13.942,212.988 12.103,206.006 16.308 C 203.594 17.760,203.960 17.831,202.846 15.695 C 198.220 6.824,208.565 -2.477,215.811 4.038 C 217.569 5.618,217.710 5.187,216.029 3.374 C 211.666 -1.332,202.838 0.609,200.613 6.763 C 200.087 8.217,199.951 8.184,199.227 6.431 C 197.528 2.314,192.044 -0.344,187.991 0.986 M61.226 10.307 C 61.104 10.504,61.147 10.851,61.322 11.078 C 61.497 11.306,62.995 13.190,64.651 15.266 L 67.662 19.039 42.911 19.127 L 18.161 19.215 13.972 14.883 L 9.784 10.550 5.235 15.243 C 2.323 18.248,0.686 20.196,0.686 20.659 C 0.686 21.406,9.053 30.189,9.765 30.189 C 10.278 30.189,18.525 21.867,18.525 21.350 C 18.525 21.018,23.930 20.926,43.625 20.926 C 57.430 20.926,68.661 20.991,68.582 21.071 C 59.830 29.917,59.480 30.341,60.585 30.764 C 61.171 30.990,69.942 22.195,69.969 21.355 C 69.980 21.027,71.538 20.926,76.577 20.926 L 83.171 20.926 81.082 23.070 C 74.804 29.516,73.993 30.574,75.162 30.799 C 75.786 30.920,84.391 22.156,84.391 21.400 C 84.391 20.217,92.595 20.781,94.812 22.116 C 97.749 23.885,100.959 26.543,102.040 28.104 L 102.996 29.483 105.272 27.488 C 108.399 24.746,110.307 23.514,113.444 22.211 L 116.123 21.098 141.747 20.998 L 167.371 20.898 167.789 21.684 C 169.145 24.229,173.123 23.846,173.876 21.098 C 174.856 17.524,170.801 15.301,168.245 18.010 L 167.113 19.211 142.819 19.205 C 115.821 19.198,115.755 19.194,111.361 16.961 C 109.006 15.765,105.136 12.855,103.812 11.285 L 103.165 10.517 102.458 11.519 C 101.296 13.168,98.799 15.368,95.845 17.347 L 93.062 19.211 88.641 19.206 L 84.220 19.202 80.527 14.575 C 77.086 10.264,75.815 9.163,75.815 10.495 C 75.815 10.796,77.204 12.797,78.902 14.941 C 80.600 17.086,81.990 18.924,81.990 19.026 C 81.990 19.128,79.220 19.211,75.835 19.211 L 69.681 19.211 66.031 14.580 C 62.584 10.205,61.748 9.462,61.226 10.307 M319.478 14.578 L 315.780 19.207 311.373 19.209 L 306.966 19.211 304.105 17.346 C 301.257 15.490,298.365 12.912,297.400 11.370 L 296.894 10.561 294.967 12.427 C 288.039 19.137,287.701 19.198,257.181 19.205 L 232.887 19.211 231.755 18.010 C 229.475 15.593,226.072 16.825,226.072 20.068 C 226.072 23.581,230.568 24.767,232.210 21.686 L 232.628 20.901 258.080 21.000 L 283.533 21.098 285.909 21.938 C 288.681 22.918,292.354 25.257,295.026 27.743 L 296.913 29.500 297.410 28.729 C 298.308 27.337,301.324 24.680,304.155 22.787 L 306.938 20.926 311.273 20.926 C 314.732 20.926,315.609 21.022,315.609 21.400 C 315.609 22.156,324.214 30.920,324.838 30.799 C 326.007 30.574,325.196 29.516,318.918 23.070 L 316.829 20.926 323.398 20.926 C 328.637 20.926,329.989 21.020,330.078 21.390 C 330.244 22.087,338.697 30.868,339.205 30.871 C 340.702 30.883,339.861 29.578,335.646 25.354 L 331.228 20.926 356.033 20.926 L 380.839 20.926 385.311 25.557 C 387.771 28.105,389.967 30.189,390.192 30.189 C 390.923 30.189,399.314 21.435,399.314 20.672 C 399.314 20.227,397.619 18.209,394.766 15.257 L 390.218 10.551 386.027 14.883 L 381.836 19.215 357.094 19.127 L 332.352 19.039 335.643 14.923 C 337.453 12.659,338.883 10.652,338.821 10.463 C 338.451 9.340,337.388 10.241,333.982 14.562 L 330.319 19.211 324.165 19.211 C 320.780 19.211,318.010 19.119,318.010 19.007 C 318.010 18.895,319.400 17.049,321.098 14.904 C 322.796 12.760,324.185 10.767,324.185 10.477 C 324.185 9.169,322.911 10.279,319.478 14.578 M200.343 15.542 C 200.343 15.788,200.753 16.812,201.255 17.819 C 201.982 19.277,202.086 19.761,201.767 20.202 C 201.548 20.506,201.109 21.256,200.792 21.870 C 200.250 22.918,199.657 23.347,199.657 22.689 C 199.657 22.527,199.254 21.801,198.762 21.076 L 197.867 19.757 198.762 17.933 C 199.254 16.929,199.657 15.880,199.657 15.601 C 199.657 15.322,199.811 15.094,200.000 15.094 C 200.189 15.094,200.343 15.296,200.343 15.542 M190.566 17.542 C 191.509 17.891,192.744 18.561,193.310 19.031 L 194.340 19.885 193.482 20.570 C 189.163 24.019,181.475 23.652,181.475 19.996 C 181.475 16.891,185.717 15.746,190.566 17.542 M216.808 17.445 C 218.955 18.457,219.087 21.049,217.058 22.334 C 214.156 24.171,204.378 21.387,206.294 19.269 C 208.353 16.993,213.833 16.043,216.808 17.445 " stroke="none" fill="#83888a" fill-rule="evenodd"></path></g></svg>